<svg width="104" height="23" fill="none" xmlns="http://www.w3.org/2000/svg"><path d="M.55 8.153h15.14V2.612L.55 8.153z" fill="#FF9D28"/><path d="M15.691 2.612V22.2L22.851 0l-7.16 2.612z" fill="#68C5ED"/><path d="M15.691 8.153h-5.72l5.72 14.03V8.153z" fill="#044D80"/><path d="M.55 8.154l10.893 3.6-1.473-3.6H.55z" fill="#E54747"/><path d="M35.252 17.027a2.518 2.518 0 01-.41.301 4.42 4.42 0 01-.754.369 6.398 6.398 0 01-1.148.318c-.445.083-.96.134-1.541.134-1.114 0-2.09-.185-2.912-.52-.823-.351-1.49-.837-2.022-1.473a5.93 5.93 0 01-1.164-2.226c-.257-.854-.377-1.809-.377-2.83 0-1.021.137-1.976.41-2.846.275-.87.669-1.624 1.217-2.26a5.438 5.438 0 012.021-1.49c.805-.352 1.765-.536 2.86-.536.532 0 1.029.05 1.457.134.428.1.822.2 1.147.335.326.133.6.267.805.401.223.134.377.268.48.352.12.1.24.234.326.385.085.15.136.318.136.486 0 .267-.102.535-.308.803a5.727 5.727 0 01-.685.754 8.388 8.388 0 00-.565-.503 4.166 4.166 0 00-.703-.452 4.086 4.086 0 00-.873-.318 4.355 4.355 0 00-1.096-.134c-.703 0-1.302.134-1.782.419-.48.284-.856.636-1.147 1.088a4.48 4.48 0 00-.617 1.524A8.509 8.509 0 0027.819 11c0 .636.068 1.239.188 1.825a4.17 4.17 0 00.65 1.54c.31.452.703.803 1.2 1.071.497.268 1.096.402 1.833.402.394 0 .736-.05 1.062-.134.325-.1.616-.217.856-.351.257-.134.463-.285.651-.419.188-.15.343-.285.462-.385.086.1.172.218.292.352.12.133.222.284.308.418.103.15.171.301.257.452a.93.93 0 010 .854 2.75 2.75 0 01-.325.402zm10.689-1.557c0 1.071.154 1.858.48 2.344-.258.1-.48.167-.703.2a4.52 4.52 0 01-.685.068c-.497 0-.873-.1-1.13-.285-.257-.184-.429-.469-.497-.82-.309.318-.703.586-1.216.803-.497.218-1.114.318-1.833.318a4.37 4.37 0 01-1.13-.15c-.377-.1-.72-.268-1.028-.503-.309-.234-.548-.535-.754-.92-.188-.385-.291-.854-.291-1.407 0-.686.171-1.255.514-1.69.342-.436.77-.77 1.284-1.022a6.179 6.179 0 011.662-.52c.6-.1 1.147-.15 1.644-.183.171-.017.326-.017.497-.017h.445v-.368c0-.52-.137-.888-.428-1.122-.291-.218-.754-.335-1.387-.335-.6 0-1.13.1-1.593.285-.463.184-.925.401-1.37.653a2.729 2.729 0 01-.463-.77c-.12-.285-.171-.486-.171-.62 0-.184.102-.368.325-.552.223-.185.514-.335.89-.486.377-.15.806-.251 1.303-.352.48-.083.993-.133 1.541-.133.754 0 1.387.066 1.901.217.514.15.943.385 1.268.687.325.318.565.703.702 1.172.137.468.206 1.02.206 1.64l.017 3.868zm-2.672-2.36h-.291c-.103 0-.189 0-.292.016-.342.033-.685.067-1.027.117a2.84 2.84 0 00-.908.285c-.257.134-.48.318-.651.535-.171.218-.257.503-.257.838 0 .385.103.703.325.97.223.269.6.402 1.131.402.257 0 .514-.033.754-.1s.445-.15.633-.268c.189-.117.326-.234.429-.351.102-.134.154-.252.154-.352v-2.093zm7.861-4.02c.223-.251.565-.52 1.045-.787.48-.268 1.062-.402 1.781-.402.514 0 1.01.084 1.473.251.463.168.874.452 1.233.82.36.386.651.888.857 1.508.223.619.325 1.39.325 2.31 0 1.055-.12 1.942-.377 2.629-.256.686-.565 1.239-.959 1.624a3.44 3.44 0 01-1.319.854 4.44 4.44 0 01-1.456.25c-.394 0-.753-.05-1.044-.133a3.49 3.49 0 01-.754-.302c-.206-.1-.36-.217-.48-.318a1.71 1.71 0 01-.205-.217V22.2h-2.844V8.204c.069-.017.155-.034.257-.034.086-.017.189-.017.291-.033.12 0 .24-.017.395-.017.462 0 .856.067 1.181.218.309.15.514.401.6.753zm3.768 3.767c0-.402-.034-.787-.103-1.139a2.957 2.957 0 00-.342-.92 1.719 1.719 0 00-.651-.603c-.274-.15-.6-.218-.993-.218-.583 0-.994.117-1.217.318-.222.218-.342.453-.342.72v4.337c.103.117.308.234.6.385.29.15.616.217.993.217.702 0 1.216-.268 1.559-.82.325-.536.496-1.29.496-2.277zm5.139 3.516a3.453 3.453 0 01-.189-.854c-.034-.301-.034-.603-.034-.904v-9.46c.103-.016.206-.033.309-.033.102-.017.205-.017.308-.033.103 0 .222-.017.325-.017.223 0 .446.017.668.067.223.033.428.117.6.25.188.118.325.286.445.503.103.218.171.486.171.82V8.17h2.93v2.06h-2.912v4.352c0 .955.394 1.424 1.181 1.424.189 0 .377-.034.549-.084a6.23 6.23 0 00.462-.201c.137-.067.257-.15.36-.234.103-.084.171-.151.222-.185.206.302.377.553.48.77.103.218.171.42.171.62 0 .184-.068.352-.222.519-.154.168-.36.335-.617.469-.257.15-.582.268-.96.351a5.67 5.67 0 01-1.232.134c-.857 0-1.542-.167-2.022-.485-.445-.352-.788-.77-.993-1.306zm12.727-.268c.342 0 .65-.033.924-.117a4.54 4.54 0 00.72-.268c.206-.1.394-.234.548-.352.154-.134.291-.25.411-.351.171.2.343.469.531.787.189.318.274.586.274.787 0 .3-.171.569-.514.82-.29.218-.702.402-1.25.57-.531.15-1.165.234-1.884.234a7.559 7.559 0 01-1.936-.252 4.485 4.485 0 01-1.696-.853c-.496-.402-.89-.955-1.199-1.641-.308-.687-.462-1.557-.462-2.595 0-.854.137-1.59.411-2.21.274-.62.634-1.139 1.08-1.54a4.427 4.427 0 011.54-.905 5.613 5.613 0 011.748-.284c.77 0 1.439.117 1.987.351.548.235.976.553 1.319.955.342.401.582.853.736 1.372.154.52.223 1.055.223 1.624v.285c0 .117 0 .218-.017.352 0 .117-.017.234-.017.351a.989.989 0 01-.035.268h-6.149c.052.754.291 1.373.72 1.875.41.486 1.079.737 1.986.737zm.959-4.135c0-.653-.137-1.19-.394-1.59-.257-.403-.72-.62-1.388-.62-.582 0-1.027.2-1.37.586-.343.385-.514.92-.514 1.624h3.666zm7.502-2.83c.086-.117.189-.25.326-.402.137-.15.308-.284.513-.401a4 4 0 01.669-.302c.24-.084.496-.117.787-.117.172 0 .343.017.531.033.189.034.36.084.514.151a.987.987 0 01.394.302.737.737 0 01.154.468c0 .302-.068.637-.222 1.022s-.309.72-.463.987a3.667 3.667 0 00-.702-.435 2.14 2.14 0 00-.84-.15c-.428 0-.787.117-1.079.368-.29.25-.445.536-.445.887v6.597H78.52V8.187a1.06 1.06 0 01.257-.034c.085-.016.188-.016.29-.033.104 0 .24-.017.395-.017.445 0 .84.084 1.165.251.308.184.514.436.6.787zm8.068 0a4.8 4.8 0 01.325-.402c.137-.15.309-.284.514-.401a3.99 3.99 0 01.668-.302 2.35 2.35 0 01.788-.117c.171 0 .343.017.531.033.188.034.36.084.514.151a.987.987 0 01.394.302.737.737 0 01.154.468c0 .302-.068.637-.223 1.022a7.88 7.88 0 01-.462.987 3.664 3.664 0 00-.702-.435 2.14 2.14 0 00-.84-.15c-.428 0-.788.117-1.079.368-.291.25-.445.536-.445.887v6.597h-2.843V8.187c.068-.017.154-.034.256-.034.086-.016.189-.016.292-.033.102 0 .24-.017.394-.017.445 0 .839.084 1.164.251.309.184.514.436.6.787zm13.549 6.329c0 1.071.154 1.858.479 2.344-.257.1-.479.167-.702.2-.223.034-.445.068-.685.068-.497 0-.874-.1-1.131-.285-.257-.184-.428-.469-.496-.82-.309.318-.703.586-1.217.803-.496.218-1.113.318-1.832.318-.377 0-.754-.05-1.13-.15-.378-.1-.72-.268-1.029-.503-.308-.234-.548-.535-.753-.92-.189-.385-.291-.854-.291-1.407 0-.686.17-1.255.514-1.69.342-.436.77-.77 1.284-1.022a6.178 6.178 0 011.662-.52c.6-.1 1.147-.15 1.644-.183.171-.017.326-.017.497-.017h.445v-.368c0-.52-.137-.888-.428-1.122-.291-.218-.754-.335-1.388-.335-.6 0-1.13.1-1.593.285-.462.184-.924.401-1.37.653a2.729 2.729 0 01-.462-.77c-.12-.285-.172-.486-.172-.62 0-.184.103-.368.326-.552.222-.185.514-.335.89-.486.377-.15.806-.251 1.302-.352.48-.083.994-.133 1.542-.133.754 0 1.387.066 1.901.217.514.15.942.385 1.268.687.325.318.565.703.702 1.172.137.468.206 1.02.206 1.64l.017 3.868zm-2.672-2.36h-.292c-.102 0-.188 0-.29.016-.343.033-.686.067-1.028.117a2.84 2.84 0 00-.908.285 2.01 2.01 0 00-.651.535c-.171.218-.257.503-.257.838 0 .385.103.703.325.97.223.269.6.402 1.13.402.258 0 .515-.033.754-.1.24-.067.446-.15.634-.268.189-.117.326-.234.428-.351.103-.134.155-.252.155-.352v-2.093z" fill="#044D80"/></svg>