<svg width="96" height="22" fill="none" xmlns="http://www.w3.org/2000/svg"><path d="M25.761 5.266h9.569v1.75h-3.768v9.867h-2.065V7.016h-3.752l.016-1.75zm9.159 3.206h1.766V10.1h.031a2.04 2.04 0 01.331-.667 2.62 2.62 0 01.583-.588c.221-.186.473-.325.757-.434.268-.108.552-.17.836-.17.22 0 .378.015.457.015.079.016.173.031.252.031v1.782a3.149 3.149 0 00-.41-.062c-.142-.016-.268-.031-.41-.031-.315 0-.614.062-.898.186-.284.123-.52.31-.741.542a2.927 2.927 0 00-.505.898 3.73 3.73 0 00-.189 1.24v3.996h-1.892l.032-8.365zm13.683 8.411h-1.86v-1.177h-.032c-.236.434-.583.759-1.04 1.022-.457.264-.93.387-1.403.387-1.12 0-1.939-.263-2.443-.82-.505-.543-.757-1.38-.757-2.479V8.472h1.892v5.158c0 .744.142 1.27.441 1.565.284.31.694.464 1.214.464.394 0 .725-.062.993-.185.268-.124.489-.28.646-.48.174-.202.284-.45.363-.729.079-.279.11-.588.11-.914V8.472h1.892v8.411h-.016zm3.216-2.695c.063.542.268.914.63 1.146.363.217.805.325 1.309.325.173 0 .378-.015.6-.046.22-.031.44-.077.63-.155.205-.077.362-.186.488-.34a.784.784 0 00.174-.574.827.827 0 00-.268-.588c-.174-.155-.379-.264-.63-.372a5.557 5.557 0 00-.884-.233c-.33-.062-.662-.139-1.009-.216-.346-.078-.693-.17-1.024-.28a2.96 2.96 0 01-.883-.448 1.942 1.942 0 01-.615-.713c-.157-.294-.236-.635-.236-1.069 0-.464.11-.836.347-1.146.22-.31.52-.558.867-.744.346-.185.74-.325 1.166-.402a6.795 6.795 0 011.214-.109c.441 0 .867.047 1.261.14.394.093.772.232 1.088.449.33.201.599.48.804.805.22.326.347.728.41 1.193h-1.97c-.095-.45-.3-.743-.616-.898a2.577 2.577 0 00-1.119-.233c-.126 0-.3.016-.473.031a2.819 2.819 0 00-.52.124c-.158.062-.3.155-.41.263a.614.614 0 00-.173.45c0 .232.079.402.236.542.158.14.363.248.63.356.253.093.552.17.883.232.331.063.678.14 1.025.217.347.078.678.17 1.01.28.33.108.63.247.882.448.252.186.473.419.63.697.158.28.237.636.237 1.038 0 .496-.11.914-.347 1.27a2.912 2.912 0 01-.898.852 4.503 4.503 0 01-1.23.48 6.71 6.71 0 01-1.34.155c-.536 0-1.04-.061-1.498-.185A3.846 3.846 0 0151 16.387a2.613 2.613 0 01-.788-.913c-.19-.357-.3-.79-.315-1.302h1.907v.016h.016zm6.227-5.716h1.434v-2.54h1.892v2.525h1.703v1.378h-1.703v4.492c0 .202.016.357.032.511.015.14.063.264.11.357.063.093.158.17.268.217.126.046.284.077.504.077.127 0 .268 0 .395-.015.126-.016.267-.031.394-.062v1.44c-.205.031-.41.047-.615.062-.205.031-.394.031-.615.031-.505 0-.899-.046-1.198-.14a1.728 1.728 0 01-.71-.402 1.431 1.431 0 01-.346-.666 5.198 5.198 0 01-.11-.93V9.851h-1.435V8.44v.031zm6.353 0h1.781v1.146h.032c.268-.495.63-.836 1.103-1.053a3.628 3.628 0 011.545-.325c.678 0 1.261.108 1.766.356.504.232.914.542 1.245.96.33.403.583.883.74 1.426.158.542.253 1.13.253 1.734 0 .574-.079 1.116-.22 1.642a4.544 4.544 0 01-.678 1.41c-.3.403-.678.728-1.151.976s-1.01.372-1.64.372a4.89 4.89 0 01-.82-.078 3.532 3.532 0 01-.788-.232 2.835 2.835 0 01-.693-.419 2.376 2.376 0 01-.536-.588h-.032v4.198h-1.891V8.472h-.016zm6.605 4.213c0-.371-.047-.743-.158-1.1a2.785 2.785 0 00-.457-.944 2.508 2.508 0 00-.74-.666c-.3-.17-.647-.248-1.025-.248-.789 0-1.388.263-1.798.805-.394.542-.599 1.27-.599 2.169 0 .434.048.82.158 1.177.11.356.252.666.473.93.205.263.457.464.757.62.3.154.63.231 1.024.231.442 0 .788-.093 1.088-.263.3-.17.536-.403.74-.666.19-.279.332-.589.41-.945.08-.372.127-.728.127-1.1zm3.326-7.42h1.892v1.751H74.33v-1.75zm0 3.207h1.892v8.411H74.33v-8.41zm3.579-3.206H79.8v11.617h-1.89V5.266zm7.66 11.85c-.677 0-1.292-.109-1.828-.341a4.153 4.153 0 01-1.356-.914 3.963 3.963 0 01-.835-1.41 5.419 5.419 0 01-.3-1.781c0-.635.095-1.224.3-1.766a4.13 4.13 0 01.835-1.41c.363-.387.82-.697 1.356-.913a4.86 4.86 0 011.829-.341c.678 0 1.293.108 1.828.34a3.93 3.93 0 011.356.914c.363.388.646.868.836 1.41.189.542.3 1.13.3 1.766 0 .65-.095 1.24-.3 1.781a4.366 4.366 0 01-.836 1.41c-.362.387-.82.697-1.356.914a4.8 4.8 0 01-1.828.34zm0-1.472c.41 0 .789-.093 1.088-.263.316-.17.552-.403.757-.682.205-.279.347-.604.442-.945a4.179 4.179 0 000-2.153 2.756 2.756 0 00-.442-.945 2.38 2.38 0 00-.757-.666 2.255 2.255 0 00-1.087-.263c-.41 0-.788.093-1.088.263a2.4 2.4 0 00-.757.666 2.756 2.756 0 00-.441.945 4.149 4.149 0 000 2.153c.095.357.236.666.441.945.205.279.458.511.757.682.315.185.678.263 1.088.263zm4.888-7.172h1.434v-2.54h1.892v2.525h1.702v1.378h-1.702v4.492c0 .202.016.357.031.511.016.14.063.264.11.357.064.093.158.17.269.217.126.046.284.077.504.077.126 0 .268 0 .394-.015.126-.016.268-.031.394-.062v1.44c-.204.031-.41.047-.614.062-.205.031-.394.031-.615.031-.505 0-.899-.046-1.198-.14a1.728 1.728 0 01-.71-.402 1.431 1.431 0 01-.347-.666 5.207 5.207 0 01-.11-.93V9.851h-1.434V8.44v.031z" fill="#000"/><path d="M23.555 8.086H14.9L12.236 0l-2.68 8.086L.902 8.07 7.9 13.074l-2.68 8.085 7-5.003 6.998 5.003-2.664-8.085 7-4.988z" fill="#00B67A"/><path d="M17.154 14.902l-.6-1.828-4.319 3.082 4.919-1.254z" fill="#005128"/></svg>