<svg width="32" height="31" fill="none" xmlns="http://www.w3.org/2000/svg"><g clip-path="url(#clip0_4_1802)" fill="#fff"><path d="M16.471 7.537a7.95 7.95 0 00-7.95 7.95 7.95 7.95 0 007.95 7.951 7.95 7.95 0 007.95-7.95 7.95 7.95 0 00-7.95-7.95zm0 13.111a5.159 5.159 0 01-5.16-5.16 5.16 5.16 0 015.16-5.16 5.16 5.16 0 015.16 5.16 5.158 5.158 0 01-5.16 5.16z"/><path d="M22.852.1c-2.85-.133-9.911-.126-12.765 0C7.58.218 5.368.823 3.585 2.606.605 5.586.986 9.601.986 15.49c0 6.027-.335 9.95 2.6 12.884 2.99 2.99 7.064 2.599 12.883 2.599 5.97 0 8.03.004 10.142-.814 2.87-1.114 5.036-3.68 5.248-8.287.134-2.852.126-9.912 0-12.765C31.603 3.667 28.684.369 22.852.1zm4.513 26.302c-1.954 1.954-4.664 1.78-10.933 1.78-6.456 0-9.044.095-10.933-1.8-2.176-2.164-1.782-5.641-1.782-10.913 0-7.133-.732-12.27 6.427-12.637 1.645-.058 2.13-.077 6.27-.077l.058.038c6.88 0 12.278-.72 12.602 6.438.074 1.633.09 2.124.09 6.258 0 6.38.12 8.984-1.8 10.913z"/><path d="M24.736 9.081a1.858 1.858 0 100-3.715 1.858 1.858 0 000 3.715z"/></g><defs><clipPath id="clip0_4_1802"><path fill="#fff" transform="translate(.973)" d="M0 0h30.986v30.986H0z"/></clipPath></defs></svg>