<svg width="32" height="31" fill="none" xmlns="http://www.w3.org/2000/svg"><g clip-path="url(#clip0_4_1806)" fill="#fff"><path d="M31.923 30.986v-.002h.007V19.62c0-5.56-1.197-9.842-7.696-9.842-3.124 0-5.221 1.715-6.077 3.34h-.09v-2.82h-6.163v20.686h6.417V20.741c0-2.697.511-5.305 3.851-5.305 3.291 0 3.34 3.078 3.34 5.478v10.072h6.41zM1.457 10.3h6.424v20.686H1.457V10.3zM4.665 0a3.722 3.722 0 00-3.72 3.72c0 2.055 1.666 3.757 3.72 3.757 2.054 0 3.721-1.702 3.721-3.756A3.724 3.724 0 004.666 0z"/></g><defs><clipPath id="clip0_4_1806"><path fill="#fff" transform="translate(.944)" d="M0 0h30.986v30.986H0z"/></clipPath></defs></svg>