<svg width="132" height="32" fill="none" xmlns="http://www.w3.org/2000/svg"><path d="M56.419 25.172c-1.661 0-3.086-.376-4.272-1.128a6.024 6.024 0 01-2.467-3.092l2.034-1.128c.696 2.077 2.28 3.115 4.756 3.115 1.22 0 2.153-.237 2.797-.711.644-.49.967-1.137.967-1.938 0-.818-.323-1.431-.967-1.84-.644-.41-1.72-.843-3.23-1.3a74.222 74.222 0 01-1.703-.54c-.39-.148-.882-.36-1.475-.638-.577-.295-1.009-.59-1.297-.883-.288-.311-.551-.712-.789-1.203-.22-.49-.33-1.046-.33-1.668 0-1.489.542-2.666 1.627-3.533 1.085-.883 2.408-1.325 3.968-1.325 1.407 0 2.627.344 3.662 1.03a6.447 6.447 0 012.365 2.724l-1.984 1.104c-.763-1.767-2.11-2.65-4.044-2.65-.966 0-1.746.23-2.34.687-.592.458-.89 1.08-.89 1.865 0 .752.28 1.325.84 1.717.56.393 1.526.802 2.9 1.227.49.147.838.254 1.042.319.203.065.517.18.94.343.441.164.764.295.967.393.203.098.475.237.814.417.356.18.619.352.788.515.17.164.365.368.585.614.237.229.407.466.509.711.101.245.186.532.254.859.085.31.127.646.127 1.006 0 1.505-.568 2.707-1.704 3.606-1.136.883-2.619 1.325-4.45 1.325zm15.058-12.905c1.492 0 2.687.458 3.586 1.374.898.9 1.347 2.126 1.347 3.68v7.532h-2.212v-7.41c0-.997-.28-1.766-.84-2.306-.559-.556-1.33-.834-2.313-.834-1.102 0-1.992.336-2.67 1.006-.679.655-1.018 1.669-1.018 3.043v6.501h-2.212V12.586h2.212v1.766c.899-1.39 2.272-2.085 4.12-2.085zm9.141-1.914c-.424 0-.78-.139-1.068-.417a1.347 1.347 0 01-.432-1.006c0-.392.144-.728.432-1.006a1.435 1.435 0 011.068-.441c.407 0 .755.147 1.043.441.288.278.432.614.432 1.006 0 .393-.144.728-.432 1.006a1.447 1.447 0 01-1.043.417zm-1.119 14.5V12.586h2.213v12.267h-2.213zm16.345 0h-2.746l-5.799-5.815v5.815h-2.212V7.68h2.212v10.33l5.493-5.423h2.849l-6.078 5.937 6.281 6.33zm9.076-12.586c1.78 0 3.298.63 4.552 1.89 1.255 1.242 1.882 2.763 1.882 4.563 0 1.799-.627 3.328-1.882 4.588-1.254 1.243-2.772 1.864-4.552 1.864-2.102 0-3.704-.81-4.806-2.429v7.017h-2.213V12.586h2.213v2.11c1.102-1.62 2.704-2.429 4.806-2.429zm-.279 10.844c1.271 0 2.339-.417 3.204-1.251.864-.85 1.297-1.897 1.297-3.14s-.433-2.282-1.297-3.116c-.865-.85-1.933-1.276-3.204-1.276-1.289 0-2.366.425-3.23 1.276-.865.834-1.297 1.873-1.297 3.116s.432 2.29 1.297 3.14c.864.834 1.941 1.251 3.23 1.251zm10.472-12.758c-.424 0-.78-.139-1.068-.417a1.348 1.348 0 01-.432-1.006c0-.392.144-.728.432-1.006a1.435 1.435 0 011.068-.441c.407 0 .755.147 1.043.441.288.278.432.614.432 1.006 0 .393-.144.728-.432 1.006a1.448 1.448 0 01-1.043.417zm-1.119 14.5V12.586h2.213v12.267h-2.213zm11.564.319c-1.916 0-3.509-.613-4.781-1.84-1.271-1.243-1.907-2.78-1.907-4.612 0-1.832.636-3.362 1.907-4.588 1.272-1.243 2.865-1.865 4.781-1.865 1.255 0 2.382.294 3.382.883 1.001.573 1.747 1.35 2.238 2.331l-1.856 1.03c-.322-.654-.822-1.177-1.501-1.57-.661-.392-1.415-.589-2.263-.589-1.271 0-2.34.418-3.204 1.252-.848.834-1.272 1.873-1.272 3.116 0 1.226.424 2.257 1.272 3.09.864.835 1.933 1.252 3.204 1.252.848 0 1.611-.188 2.289-.564a4.009 4.009 0 001.551-1.57l1.882 1.055c-.543.965-1.322 1.742-2.34 2.33-1.017.573-2.144.86-3.382.86z" fill="#fff"/><ellipse cx="17.04" cy="16" rx="16.32" ry="16" fill="#F0998D"/><path d="M14.249 6.261v3.215s-2.52.19-2.48 2.458a2.326 2.326 0 00.557 1.634c.39.455.94.75 1.542.825h6.104s5.421.078 5.343 6.052c-.066 4.938-5.726 5.294-5.726 5.294v-3.215s2.4-.192 2.48-2.269c.037-.338 0-.68-.109-1.003a2.383 2.383 0 00-.52-.87 2.441 2.441 0 00-.84-.583 2.484 2.484 0 00-1.011-.191h-5.912s-5.199-.466-5.152-5.674c.046-5.108 4.78-5.663 5.724-5.673z" fill="#fff"/></svg>