<svg width="48" height="48" fill="none" xmlns="http://www.w3.org/2000/svg"><path fill-rule="evenodd" clip-rule="evenodd" d="M45.08 35.484A23.893 23.893 0 0048 24C48 10.745 37.255 0 24 0S0 10.745 0 24s10.745 24 24 24c4.245 0 8.232-1.102 11.691-3.035-3.16-.271-6.552-2.201-10.097-5.747l-9.814-9.813c-3.03-3.03-4.889-5.964-5.527-8.722-.765-3.309.205-6.345 2.884-9.023l1.694-1.693a3.276 3.276 0 012.329-.964c.534 0 1.066.132 1.539.382 2.532 1.34 5.28 5.994 5.395 6.191.49.86.643 1.74.436 2.49a2.219 2.219 0 01-1.032 1.332c-.814.681-1.766 1.526-1.916 1.732-1.068 1.577-.943 2.834.422 4.199l7.666 7.666c1.373 1.374 2.615 1.496 4.2.42.205-.148 1.05-1.1 1.73-1.913.43-.724 1.141-1.122 2.01-1.122.584 0 1.208.18 1.806.52.183.108 3.913 2.31 5.663 4.584z" fill="#F0998D"/></svg>