<svg width="119" height="27" fill="none" xmlns="http://www.w3.org/2000/svg"><g filter="url(#filter0_d_4_143)"><path d="M23.623 11.465a.326.326 0 00-.265-.217l-5.928-.84-2.652-5.23A.328.328 0 0014.485 5a.328.328 0 00-.294.178l-2.652 5.231-5.928.84a.326.326 0 00-.265.216.313.313 0 00.083.327l4.29 4.072-1.013 5.75c-.02.12.03.24.13.312a.332.332 0 00.345.024l5.304-2.714 5.302 2.714a.336.336 0 00.346-.024.315.315 0 00.13-.312l-1.013-5.75 4.29-4.072a.314.314 0 00.083-.327z" fill="url(#paint0_linear_4_143)"/></g><g filter="url(#filter1_d_4_143)"><path d="M46.002 11.465a.326.326 0 00-.265-.217l-5.929-.84-2.651-5.23A.328.328 0 0036.863 5a.328.328 0 00-.293.178l-2.652 5.231-5.929.84a.326.326 0 00-.265.216.313.313 0 00.083.327l4.29 4.072-1.012 5.75c-.021.12.03.24.13.312a.332.332 0 00.345.024l5.303-2.714 5.303 2.714a.336.336 0 00.346-.024.315.315 0 00.13-.312l-1.013-5.75 4.29-4.072a.314.314 0 00.083-.327z" fill="url(#paint1_linear_4_143)"/></g><g filter="url(#filter2_d_4_143)"><path d="M68.38 11.465a.326.326 0 00-.265-.217l-5.928-.84-2.652-5.23A.328.328 0 0059.242 5a.328.328 0 00-.294.178l-2.652 5.231-5.928.84a.326.326 0 00-.265.216.313.313 0 00.083.327l4.29 4.072-1.013 5.75c-.021.12.03.24.13.312a.332.332 0 00.345.024l5.303-2.714 5.303 2.714a.336.336 0 00.346-.024.315.315 0 00.13-.312l-1.013-5.75 4.29-4.072a.313.313 0 00.083-.327z" fill="url(#paint2_linear_4_143)"/></g><g filter="url(#filter3_d_4_143)"><path d="M90.758 11.465a.326.326 0 00-.264-.217l-5.93-.84-2.65-5.23A.328.328 0 0081.62 5a.328.328 0 00-.294.178l-2.651 5.231-5.93.84a.326.326 0 00-.264.216.313.313 0 00.083.327l4.29 4.072-1.013 5.75c-.02.12.03.24.13.312a.332.332 0 00.346.024l5.303-2.714 5.303 2.714a.336.336 0 00.345-.024.315.315 0 00.13-.312l-1.013-5.75 4.29-4.072a.314.314 0 00.083-.327z" fill="url(#paint3_linear_4_143)"/></g><g filter="url(#filter4_d_4_143)"><path d="M113.136 11.465a.326.326 0 00-.265-.217l-5.929-.84-2.651-5.23a.328.328 0 00-.294-.178.327.327 0 00-.293.178l-2.652 5.231-5.929.84a.326.326 0 00-.264.216.313.313 0 00.082.327l4.29 4.072-1.012 5.75c-.021.12.03.24.13.312a.332.332 0 00.345.024l5.303-2.714 5.303 2.714a.338.338 0 00.346-.024.317.317 0 00.13-.312l-1.013-5.75 4.29-4.072a.313.313 0 00.083-.327z" fill="url(#paint4_linear_4_143)"/></g><defs><linearGradient id="paint0_linear_4_143" x1="9.398" y1="7.056" x2="18.712" y2="21.152" gradientUnits="userSpaceOnUse"><stop stop-color="#F2D063"/><stop offset="1" stop-color="#F8AE2E"/></linearGradient><linearGradient id="paint1_linear_4_143" x1="31.777" y1="7.056" x2="41.091" y2="21.152" gradientUnits="userSpaceOnUse"><stop stop-color="#F2D063"/><stop offset="1" stop-color="#F8AE2E"/></linearGradient><linearGradient id="paint2_linear_4_143" x1="54.155" y1="7.056" x2="63.469" y2="21.152" gradientUnits="userSpaceOnUse"><stop stop-color="#F2D063"/><stop offset="1" stop-color="#F8AE2E"/></linearGradient><linearGradient id="paint3_linear_4_143" x1="76.534" y1="7.056" x2="85.848" y2="21.152" gradientUnits="userSpaceOnUse"><stop stop-color="#F2D063"/><stop offset="1" stop-color="#F8AE2E"/></linearGradient><linearGradient id="paint4_linear_4_143" x1="98.911" y1="7.056" x2="108.225" y2="21.152" gradientUnits="userSpaceOnUse"><stop stop-color="#F2D063"/><stop offset="1" stop-color="#F8AE2E"/></linearGradient><filter id="filter0_d_4_143" x=".33" y="0" width="28.31" height="26.987" filterUnits="userSpaceOnUse" color-interpolation-filters="sRGB"><feFlood flood-opacity="0" result="BackgroundImageFix"/><feColorMatrix in="SourceAlpha" values="0 0 0 0 0 0 0 0 0 0 0 0 0 0 0 0 0 0 127 0" result="hardAlpha"/><feOffset/><feGaussianBlur stdDeviation="2.5"/><feComposite in2="hardAlpha" operator="out"/><feColorMatrix values="0 0 0 0 0.94902 0 0 0 0 0.815686 0 0 0 0 0.388235 0 0 0 0.36 0"/><feBlend in2="BackgroundImageFix" result="effect1_dropShadow_4_143"/><feBlend in="SourceGraphic" in2="effect1_dropShadow_4_143" result="shape"/></filter><filter id="filter1_d_4_143" x="22.709" y="0" width="28.31" height="26.987" filterUnits="userSpaceOnUse" color-interpolation-filters="sRGB"><feFlood flood-opacity="0" result="BackgroundImageFix"/><feColorMatrix in="SourceAlpha" values="0 0 0 0 0 0 0 0 0 0 0 0 0 0 0 0 0 0 127 0" result="hardAlpha"/><feOffset/><feGaussianBlur stdDeviation="2.5"/><feComposite in2="hardAlpha" operator="out"/><feColorMatrix values="0 0 0 0 0.94902 0 0 0 0 0.815686 0 0 0 0 0.388235 0 0 0 0.36 0"/><feBlend in2="BackgroundImageFix" result="effect1_dropShadow_4_143"/><feBlend in="SourceGraphic" in2="effect1_dropShadow_4_143" result="shape"/></filter><filter id="filter2_d_4_143" x="45.087" y="0" width="28.31" height="26.987" filterUnits="userSpaceOnUse" color-interpolation-filters="sRGB"><feFlood flood-opacity="0" result="BackgroundImageFix"/><feColorMatrix in="SourceAlpha" values="0 0 0 0 0 0 0 0 0 0 0 0 0 0 0 0 0 0 127 0" result="hardAlpha"/><feOffset/><feGaussianBlur stdDeviation="2.5"/><feComposite in2="hardAlpha" operator="out"/><feColorMatrix values="0 0 0 0 0.94902 0 0 0 0 0.815686 0 0 0 0 0.388235 0 0 0 0.36 0"/><feBlend in2="BackgroundImageFix" result="effect1_dropShadow_4_143"/><feBlend in="SourceGraphic" in2="effect1_dropShadow_4_143" result="shape"/></filter><filter id="filter3_d_4_143" x="67.465" y="0" width="28.31" height="26.987" filterUnits="userSpaceOnUse" color-interpolation-filters="sRGB"><feFlood flood-opacity="0" result="BackgroundImageFix"/><feColorMatrix in="SourceAlpha" values="0 0 0 0 0 0 0 0 0 0 0 0 0 0 0 0 0 0 127 0" result="hardAlpha"/><feOffset/><feGaussianBlur stdDeviation="2.5"/><feComposite in2="hardAlpha" operator="out"/><feColorMatrix values="0 0 0 0 0.94902 0 0 0 0 0.815686 0 0 0 0 0.388235 0 0 0 0.36 0"/><feBlend in2="BackgroundImageFix" result="effect1_dropShadow_4_143"/><feBlend in="SourceGraphic" in2="effect1_dropShadow_4_143" result="shape"/></filter><filter id="filter4_d_4_143" x="89.843" y="0" width="28.31" height="26.987" filterUnits="userSpaceOnUse" color-interpolation-filters="sRGB"><feFlood flood-opacity="0" result="BackgroundImageFix"/><feColorMatrix in="SourceAlpha" values="0 0 0 0 0 0 0 0 0 0 0 0 0 0 0 0 0 0 127 0" result="hardAlpha"/><feOffset/><feGaussianBlur stdDeviation="2.5"/><feComposite in2="hardAlpha" operator="out"/><feColorMatrix values="0 0 0 0 0.94902 0 0 0 0 0.815686 0 0 0 0 0.388235 0 0 0 0.36 0"/><feBlend in2="BackgroundImageFix" result="effect1_dropShadow_4_143"/><feBlend in="SourceGraphic" in2="effect1_dropShadow_4_143" result="shape"/></filter></defs></svg>